<svg width="140" height="140" viewBox="0 0 140 140" fill="none" xmlns="http://www.w3.org/2000/svg">
<path fill-rule="evenodd" clip-rule="evenodd" d="M67.0229 0.00794623C98.7677 -0.459597 127.673 19.7449 137.163 50.0613C146.368 79.4664 132.34 110.409 107.113 128.082C83.2579 144.794 51.6343 143.635 28.1099 126.46C4.73721 109.395 -5.55312 79.7074 2.96165 52.0378C11.9099 22.9596 36.6202 0.455721 67.0229 0.00794623Z" fill="#FFD7BA"/>
<g filter="url(#filter0_d)">
<path d="M68.5 114C93.0767 114 113 94.0767 113 69.5C113 44.9233 93.0767 25 68.5 25C43.9233 25 24 44.9233 24 69.5C24 94.0767 43.9233 114 68.5 114Z" fill="black"/>
<path d="M68.5 114C93.0767 114 113 94.0767 113 69.5C113 44.9233 93.0767 25 68.5 25C43.9233 25 24 44.9233 24 69.5C24 94.0767 43.9233 114 68.5 114Z" fill="#127273"/>
</g>
<path fill-rule="evenodd" clip-rule="evenodd" d="M101 69.5C101 87.4493 86.4493 102 68.5 102C50.5507 102 36 87.4493 36 69.5C36 51.5507 50.5507 37 68.5 37C86.4493 37 101 51.5507 101 69.5ZM93 69.5C93 83.031 82.031 94 68.5 94C54.969 94 44 83.031 44 69.5C44 55.969 54.969 45 68.5 45C82.031 45 93 55.969 93 69.5Z" fill="#FFD7BA"/>
<circle cx="69.5" cy="69.5" r="10.5" fill="#FFD7BA"/>
<path d="M68.6454 65.96L69.7552 66.9691L68.6454 65.96C66.8645 67.9187 67.2139 70.8321 69.3137 72.3951L82.9169 82.5201C84.7416 83.8782 87.3577 83.8212 89.1121 82.3702L110.877 64.3703C112.901 62.6963 113.063 59.7674 111.187 57.9099C109.396 56.1371 106.428 56.0277 104.491 57.6298L85.7559 73.124L75.318 65.3549C73.3038 63.8558 70.3436 64.0923 68.6454 65.96Z" fill="black"/>
<path d="M68.6454 65.96L69.7552 66.9691L68.6454 65.96C66.8645 67.9187 67.2139 70.8321 69.3137 72.3951L82.9169 82.5201C84.7416 83.8782 87.3577 83.8212 89.1121 82.3702L110.877 64.3703C112.901 62.6963 113.063 59.7674 111.187 57.9099C109.396 56.1371 106.428 56.0277 104.491 57.6298L85.7559 73.124L75.318 65.3549C73.3038 63.8558 70.3436 64.0923 68.6454 65.96Z" fill="#127273"/>
<path d="M68.6454 65.96L69.7552 66.9691L68.6454 65.96C66.8645 67.9187 67.2139 70.8321 69.3137 72.3951L82.9169 82.5201C84.7416 83.8782 87.3577 83.8212 89.1121 82.3702L110.877 64.3703C112.901 62.6963 113.063 59.7674 111.187 57.9099C109.396 56.1371 106.428 56.0277 104.491 57.6298L85.7559 73.124L75.318 65.3549C73.3038 63.8558 70.3436 64.0923 68.6454 65.96Z" stroke="#FFD7BA" stroke-width="3" stroke-linecap="round" stroke-linejoin="round"/>
<defs>
<filter id="filter0_d" x="18" y="23" width="101" height="101" filterUnits="userSpaceOnUse" color-interpolation-filters="sRGB">
<feFlood flood-opacity="0" result="BackgroundImageFix"/>
<feColorMatrix in="SourceAlpha" type="matrix" values="0 0 0 0 0 0 0 0 0 0 0 0 0 0 0 0 0 0 127 0"/>
<feOffset dy="4"/>
<feGaussianBlur stdDeviation="3"/>
<feColorMatrix type="matrix" values="0 0 0 0 0 0 0 0 0 0 0 0 0 0 0 0 0 0 0.08 0"/>
<feBlend mode="normal" in2="BackgroundImageFix" result="effect1_dropShadow"/>
<feBlend mode="normal" in="SourceGraphic" in2="effect1_dropShadow" result="shape"/>
</filter>
</defs>
</svg>
